<svg width="16" height="15" viewBox="0 0 16 15" fill="none" xmlns="http://www.w3.org/2000/svg">
<path d="M9.67969 0H15.5V5.82031H13.8203V2.85156L5.65625 11.0156L4.48438 9.84375L12.6484 1.67969H9.67969V0ZM13.8203 13.3203V7.5H15.5V13.3203C15.5 13.763 15.3307 14.1536 14.9922 14.4922C14.6536 14.8307 14.263 15 13.8203 15H2.17969C1.71094 15 1.30729 14.8438 0.96875 14.5312C0.65625 14.1927 0.5 13.7891 0.5 13.3203V1.67969C0.5 1.21094 0.65625 0.820312 0.96875 0.507812C1.30729 0.169271 1.71094 0 2.17969 0H8V1.67969H2.17969V13.3203H13.8203Z" fill="#304FFE"/>
</svg>
