<svg width="39" height="31" viewBox="0 0 39 31" fill="none" xmlns="http://www.w3.org/2000/svg">
<path d="M17.3889 3.43808C15.6011 4.4695 14.1557 5.36722 13.0526 6.13124C11.9494 6.85705 10.8273 7.83118 9.68619 9.0536C8.62112 10.1996 7.8033 11.403 7.23273 12.6636C6.66216 13.9242 6.26276 15.5478 6.03453 17.5342H8.77327C11.1316 17.5342 12.9765 18.1263 14.3078 19.3105C15.6772 20.4566 16.3619 22.1565 16.3619 24.4104C16.3619 26.0148 15.7533 27.5237 14.536 28.9372C13.3569 30.3124 11.7212 31 9.62913 31C6.35786 31 4.01852 29.9304 2.61111 27.7911C1.2037 25.6137 0.5 22.7677 0.5 19.2532C0.5 16.7702 1.03253 14.5163 2.0976 12.4917C3.16266 10.4288 4.45596 8.59519 5.97748 6.99076C7.53704 5.34812 9.19169 3.95379 10.9414 2.80776C12.6912 1.66174 14.1557 0.725816 15.3348 0L17.3889 3.43808ZM38.5 3.43808C36.7122 4.4695 35.2668 5.36722 34.1637 6.13124C33.0606 6.85705 31.9384 7.83118 30.7973 9.0536C29.6942 10.2378 28.8574 11.4603 28.2868 12.7209C27.7543 13.9433 27.3739 15.5478 27.1456 17.5342H29.8844C32.2427 17.5342 34.0876 18.1263 35.4189 19.3105C36.7883 20.4566 37.473 22.1565 37.473 24.4104C37.473 26.0148 36.8644 27.5237 35.6471 28.9372C34.468 30.3124 32.8323 31 30.7402 31C27.469 31 25.1296 29.9304 23.7222 27.7911C22.3148 25.6137 21.6111 22.7677 21.6111 19.2532C21.6111 16.7702 22.1436 14.5163 23.2087 12.4917C24.2738 10.4288 25.5671 8.59519 27.0886 6.99076C28.6481 5.34812 30.3028 3.95379 32.0526 2.80776C33.8023 1.66174 35.2668 0.725816 36.4459 0L38.5 3.43808Z" fill="#304FFE"/>
</svg>
