<svg width="12" height="11" viewBox="0 0 12 11" fill="none" xmlns="http://www.w3.org/2000/svg">
<path d="M0.65625 3.77539C2.48958 3.77539 4.05208 4.42122 5.34375 5.71289C6.63542 7.00456 7.28125 8.56706 7.28125 10.4004H5.375C5.375 9.10872 4.90625 8.00456 3.96875 7.08789C3.05208 6.15039 1.94792 5.68164 0.65625 5.68164V3.77539ZM0.65625 0.0253906C3.51042 0.0253906 5.94792 1.04622 7.96875 3.08789C10.0104 5.10872 11.0312 7.54622 11.0312 10.4004H9.15625C9.15625 8.04622 8.32292 6.04622 6.65625 4.40039C5.01042 2.73372 3.01042 1.90039 0.65625 1.90039V0.0253906ZM0.65625 8.93164C0.65625 8.53581 0.791667 8.20247 1.0625 7.93164C1.35417 7.63997 1.70833 7.49414 2.125 7.49414C2.54167 7.49414 2.88542 7.62956 3.15625 7.90039C3.42708 8.17122 3.5625 8.51497 3.5625 8.93164C3.5625 9.34831 3.41667 9.70247 3.125 9.99414C2.85417 10.265 2.52083 10.4004 2.125 10.4004C1.70833 10.4004 1.35417 10.265 1.0625 9.99414C0.791667 9.70247 0.65625 9.34831 0.65625 8.93164Z" fill="white"/>
</svg>
