<svg width="14" height="12" viewBox="0 0 14 12" fill="none" xmlns="http://www.w3.org/2000/svg">
<path d="M12.3438 3.40039V2.05664L7 5.40039L1.65625 2.05664V3.40039L7 6.71289L12.3438 3.40039ZM12.3438 0.712891C12.6979 0.712891 13 0.848307 13.25 1.11914C13.5208 1.38997 13.6562 1.70247 13.6562 2.05664V10.0566C13.6562 10.4108 13.5208 10.7233 13.25 10.9941C13 11.265 12.6979 11.4004 12.3438 11.4004H1.65625C1.30208 11.4004 0.989583 11.265 0.71875 10.9941C0.46875 10.7233 0.34375 10.4108 0.34375 10.0566V2.05664C0.34375 1.70247 0.46875 1.38997 0.71875 1.11914C0.989583 0.848307 1.30208 0.712891 1.65625 0.712891H12.3438Z" fill="white"/>
</svg>
