<svg width="12" height="13" viewBox="0 0 12 13" fill="none" xmlns="http://www.w3.org/2000/svg">
<path d="M2.40625 5.24414C3.40625 7.18164 4.875 8.65039 6.8125 9.65039L8.28125 8.18164C8.48958 7.97331 8.71875 7.92122 8.96875 8.02539C9.71875 8.27539 10.5104 8.40039 11.3438 8.40039C11.5312 8.40039 11.6875 8.46289 11.8125 8.58789C11.9375 8.71289 12 8.86914 12 9.05664V11.4004C12 11.5879 11.9375 11.7441 11.8125 11.8691C11.6875 11.9941 11.5312 12.0566 11.3438 12.0566C8.21875 12.0566 5.54167 10.9525 3.3125 8.74414C1.10417 6.51497 0 3.83789 0 0.712891C0 0.525391 0.0625 0.369141 0.1875 0.244141C0.3125 0.119141 0.46875 0.0566406 0.65625 0.0566406H3C3.1875 0.0566406 3.34375 0.119141 3.46875 0.244141C3.59375 0.369141 3.65625 0.525391 3.65625 0.712891C3.65625 1.54622 3.78125 2.33789 4.03125 3.08789C4.11458 3.35872 4.0625 3.58789 3.875 3.77539L2.40625 5.24414Z" fill="white"/>
</svg>
