<svg width="14" height="13" viewBox="0 0 14 13" fill="none" xmlns="http://www.w3.org/2000/svg">
<path d="M11 0.0566406V2.71289H3V0.0566406H11ZM11.1875 5.86914C11.3125 5.99414 11.4688 6.05664 11.6562 6.05664C11.8438 6.05664 12 5.99414 12.125 5.86914C12.2708 5.74414 12.3438 5.58789 12.3438 5.40039C12.3438 5.21289 12.2708 5.05664 12.125 4.93164C12 4.78581 11.8438 4.71289 11.6562 4.71289C11.4688 4.71289 11.3125 4.78581 11.1875 4.93164C11.0625 5.05664 11 5.21289 11 5.40039C11 5.58789 11.0625 5.74414 11.1875 5.86914ZM9.65625 10.7129V7.40039H4.34375V10.7129H9.65625ZM11.6562 3.40039C12.1979 3.40039 12.6667 3.59831 13.0625 3.99414C13.4583 4.38997 13.6562 4.85872 13.6562 5.40039V9.40039H11V12.0566H3V9.40039H0.34375V5.40039C0.34375 4.85872 0.541667 4.38997 0.9375 3.99414C1.33333 3.59831 1.80208 3.40039 2.34375 3.40039H11.6562Z" fill="white"/>
</svg>
